<svg xmlns="http://www.w3.org/2000/svg" width="1200" height="675" viewBox="0 0 1200 675">
<rect width="1200" height="675" fill="#17212B"/><rect x="72" y="72" width="1056" height="531" fill="#ffffff" opacity=".08"/>
<path d="M232 196v190c0 49-37 82-84 82-34 0-62-27-62-62 0-38 30-68 68-68 7 0 15 1 21 4v56c-6-5-14-8-22-8-14 0-25 11-25 25 0 15 11 27 25 27 18 0 29-13 29-34V196h50c4 48 31 74 75 79v51c-30-2-56-13-75-31z" fill="#25F4EE"/><path d="M222 186v190c0 49-37 82-84 82-34 0-62-27-62-62 0-38 30-68 68-68 7 0 15 1 21 4v56c-6-5-14-8-22-8-14 0-25 11-25 25 0 15 11 27 25 27 18 0 29-13 29-34V186h50c4 48 31 74 75 79v51c-30-2-56-13-75-31z" fill="#FE2C55" opacity=".85"/>
<text x="365" y="320" fill="#ffffff" font-family="Arial, sans-serif" font-size="78" font-weight="700">TikTok</text><text x="370" y="385" fill="#ffffff" font-family="Arial, sans-serif" font-size="28" opacity=".82">Social Gurus Hub</text>
</svg>
